<?xml version="1.0" encoding="utf-8"?>
<!-- Generator: Adobe Illustrator 16.0.0, SVG Export Plug-In . SVG Version: 6.00 Build 0)  -->
<!DOCTYPE svg PUBLIC "-//W3C//DTD SVG 1.1 Tiny//EN" "http://www.w3.org/Graphics/SVG/1.1/DTD/svg11-tiny.dtd">
<svg version="1.1" baseProfile="tiny" id="Layer_1" xmlns="http://www.w3.org/2000/svg" xmlns:xlink="http://www.w3.org/1999/xlink"
	 x="0px" y="0px" width="24px" height="24px" viewBox="0 0 24 24" xml:space="preserve">
<g>
	<path d="M12,1.602c-4.307,0-7.799,3.492-7.799,7.798c0,4.307,6.498,12.999,7.799,12.999c1.299,0,7.799-8.691,7.799-12.999
		C19.799,5.093,16.307,1.602,12,1.602z M12,14.599c-2.867,0-5.199-2.333-5.199-5.199S9.133,4.201,12,4.201s5.199,2.333,5.199,5.199
		S14.867,14.599,12,14.599z"/>
	<polygon points="12.648,6.229 11.35,6.229 11.35,8.601 8.979,8.601 8.979,9.899 11.35,9.899 11.35,12.271 12.648,12.271 
		12.648,9.899 15.021,9.899 15.021,8.601 12.648,8.601 	"/>
</g>
</svg>
